<?xml version="1.0" encoding="UTF-8" standalone="no"?>
<!-- Created with Inkscape (http://www.inkscape.org/) -->

<svg
   xmlns:dc="http://purl.org/dc/elements/1.1/"
   xmlns:cc="http://creativecommons.org/ns#"
   xmlns:rdf="http://www.w3.org/1999/02/22-rdf-syntax-ns#"
   xmlns:svg="http://www.w3.org/2000/svg"
   xmlns="http://www.w3.org/2000/svg"
   xmlns:sodipodi="http://sodipodi.sourceforge.net/DTD/sodipodi-0.dtd"
   xmlns:inkscape="http://www.inkscape.org/namespaces/inkscape"
   width="18.212646mm"
   height="18.212646mm"
   viewBox="0 0 18.212646 18.212646"
   version="1.1"
   id="svg8"
   inkscape:version="0.92.4 5da689c313, 2019-01-14"
   sodipodi:docname="favicon.svg"
   inkscape:export-filename="/home/alexandre/Gits/sms-web-interface/img/favicon.png"
   inkscape:export-xdpi="178.51332"
   inkscape:export-ydpi="178.51332">
  <defs
     id="defs2" />
  <sodipodi:namedview
     id="base"
     pagecolor="#ffffff"
     bordercolor="#666666"
     borderopacity="1.0"
     inkscape:pageopacity="0.0"
     inkscape:pageshadow="2"
     inkscape:zoom="11.2"
     inkscape:cx="43.800416"
     inkscape:cy="15.781897"
     inkscape:document-units="mm"
     inkscape:current-layer="g858"
     showgrid="false"
     fit-margin-top="0"
     fit-margin-left="0"
     fit-margin-right="0"
     fit-margin-bottom="0"
     inkscape:pagecheckerboard="true"
     inkscape:window-width="1920"
     inkscape:window-height="1031"
     inkscape:window-x="0"
     inkscape:window-y="145"
     inkscape:window-maximized="1" />
  <metadata
     id="metadata5">
    <rdf:RDF>
      <cc:Work
         rdf:about="">
        <dc:format>image/svg+xml</dc:format>
        <dc:type
           rdf:resource="http://purl.org/dc/dcmitype/StillImage" />
        <dc:title />
      </cc:Work>
    </rdf:RDF>
  </metadata>
  <g
     inkscape:label="Calque 1"
     inkscape:groupmode="layer"
     id="layer1"
     transform="translate(-36.250818,-136.7032)">
    <g
       transform="translate(-40.417044,31.750001)"
       id="layer1-6"
       inkscape:label="Calque 1">
      <g
         transform="matrix(0.33072917,0,0,-0.33072917,241.59325,319.9425)"
         id="g4980"
         style="display:inline">
        <g
           id="g16313-3-6"
           transform="matrix(0.85892327,0,0,0.85892327,-9.1299229,-356.96785)">
          <circle
             r="32.056507"
             cy="-1140.3582"
             cx="-537.89209"
             style="fill:#ffffff;fill-opacity:1;fill-rule:evenodd;stroke:none;stroke-width:0.11373495"
             id="path3308-03-9"
             transform="scale(1,-1)" />
          <g
             transform="translate(-0.25882101,-0.86816269)"
             id="g16309-5-8">
            <path
               style="fill:#000000;fill-opacity:1;stroke-width:1.06666672"
               inkscape:connector-curvature="0"
               d="m -537.63497,1115.0227 c -14.46501,0 -26.19742,11.7314 -26.19742,26.2028 0,14.4715 11.73241,26.2028 26.19742,26.2028 14.47356,0 26.20255,-11.7313 26.20255,-26.2028 0,-14.4714 -11.72899,-26.2028 -26.20255,-26.2028 m 0,55.4073 c -16.12544,0 -29.20192,-13.0706 -29.20192,-29.2045 0,-16.127 13.07648,-29.2028 29.20192,-29.2028 16.12886,0 29.20534,13.0775 29.20534,29.2028 0,16.1356 -13.07819,29.2045 -29.20534,29.2045"
               id="path3083-0-0" />
            <path
               style="fill:#000000;fill-opacity:1;stroke-width:1.06666672"
               inkscape:connector-curvature="0"
               d="m -541.81937,1137.8851 c -1.52876,-1.0723 -2.79759,-2.0712 -3.84582,-3.029 v 20.3089 c 2.12384,-0.4498 4.3725,-1.3683 5.92348,-3.1916 3.81334,-4.505 2.52057,-10.8625 -2.07766,-14.0883 m 16.66922,17.8751 c -6.31679,3.5439 -14.23245,3.5746 -20.51334,1.9652 v 2.7195 h -2.72576 v -3.5507 c -1.17136,-0.4242 -2.25209,-0.9013 -3.21654,-1.4231 0,0 1.35604,0.1676 3.21654,0.051 v -23.7689 c -1.35604,-2.0849 -1.68095,-4.1151 -1.35946,-6.4584 0.35739,-2.6185 2.33417,-4.3682 3.892,-5.6613 -0.91829,2.6426 -0.9884,5.044 -0.71821,6.4994 0.51642,2.7161 2.10845,4.6676 8.98099,6.1574 7.13247,1.5376 15.58336,2.2491 18.37582,9.1744 1.27224,3.1641 2.06056,9.8089 -5.93204,14.2952"
               id="path3085-7-1" />
          </g>
        </g>
      </g>
    </g>
    <g
       transform="translate(4.0901773,30.2445)"
       id="layer1-62"
       inkscape:label="Calque 1">
      <g
         id="g858"
         transform="matrix(0.87340559,0,0,0.87340559,-10.469331,2.631947)">
        <rect
           style="opacity:1;vector-effect:none;fill:#d9d9d9;fill-opacity:1;stroke:#2cbfd4;stroke-width:1.06500006;stroke-linecap:round;stroke-linejoin:round;stroke-miterlimit:4;stroke-dasharray:none;stroke-dashoffset:0;stroke-opacity:1"
           id="rect857"
           width="10.228977"
           height="7.417788"
           x="58.672989"
           y="130.0132"
           ry="0.80319357" />
        <path
           style="fill:none;stroke:#2cbfd4;stroke-width:0.86500001;stroke-linecap:butt;stroke-linejoin:miter;stroke-miterlimit:4;stroke-dasharray:none;stroke-opacity:1"
           d="m 59.135879,130.47955 4.200549,4.17693 c 0.226953,0.22695 0.698555,0.21968 0.917617,0 l 4.161315,-4.17313"
           id="path861"
           inkscape:connector-curvature="0"
           sodipodi:nodetypes="ccsc" />
        <path
           style="fill:none;stroke:#2cbfd4;stroke-width:0.76499999;stroke-linecap:butt;stroke-linejoin:miter;stroke-miterlimit:4;stroke-dasharray:none;stroke-opacity:1"
           d="m 59.039155,137.01758 3.307292,-3.30729"
           id="path865"
           inkscape:connector-curvature="0" />
        <path
           style="fill:none;stroke:#2cbfd4;stroke-width:0.76499999;stroke-linecap:butt;stroke-linejoin:miter;stroke-miterlimit:4;stroke-dasharray:none;stroke-opacity:1"
           d="m 68.559431,137.05302 -3.307292,-3.30729"
           id="path865-3"
           inkscape:connector-curvature="0" />
      </g>
    </g>
  </g>
</svg>
