<?xml version="1.0" encoding="UTF-8" standalone="no"?>
<svg
   xmlns:dc="http://purl.org/dc/elements/1.1/"
   xmlns:cc="http://creativecommons.org/ns#"
   xmlns:rdf="http://www.w3.org/1999/02/22-rdf-syntax-ns#"
   xmlns:svg="http://www.w3.org/2000/svg"
   xmlns="http://www.w3.org/2000/svg"
   xmlns:sodipodi="http://sodipodi.sourceforge.net/DTD/sodipodi-0.dtd"
   xmlns:inkscape="http://www.inkscape.org/namespaces/inkscape"
   id="svg8"
   version="1.1"
   viewBox="0 0 78.786461 20.212648"
   height="20.212648mm"
   width="78.786461mm"
   sodipodi:docname="title.svg"
   inkscape:version="0.92.4 5da689c313, 2019-01-14">
  <sodipodi:namedview
     pagecolor="#ffffff"
     bordercolor="#666666"
     borderopacity="1"
     objecttolerance="10"
     gridtolerance="10"
     guidetolerance="10"
     inkscape:pageopacity="0"
     inkscape:pageshadow="2"
     inkscape:window-width="1920"
     inkscape:window-height="1031"
     id="namedview25"
     showgrid="false"
     inkscape:zoom="6.9816651"
     inkscape:cx="101.5365"
     inkscape:cy="30.244384"
     inkscape:window-x="0"
     inkscape:window-y="145"
     inkscape:window-maximized="1"
     inkscape:current-layer="layer1-62"
     fit-margin-top="1"
     fit-margin-bottom="1"
     fit-margin-right="1"
     fit-margin-left="1" />
  <defs
     id="defs2" />
  <metadata
     id="metadata5">
    <rdf:RDF>
      <cc:Work
         rdf:about="">
        <dc:format>image/svg+xml</dc:format>
        <dc:type
           rdf:resource="http://purl.org/dc/dcmitype/StillImage" />
        <dc:title></dc:title>
      </cc:Work>
    </rdf:RDF>
  </metadata>
  <g
     transform="translate(-35.250818,-135.7032)"
     id="layer1">
    <g
       id="layer1-6"
       transform="translate(-40.417044,31.750001)">
      <g
         style="display:inline"
         id="g4980"
         transform="matrix(0.33072917,0,0,-0.33072917,241.59325,319.9425)">
        <g
           transform="matrix(0.85892327,0,0,0.85892327,-9.1299229,-356.96785)"
           id="g16313-3-6">
          <circle
             transform="scale(1,-1)"
             id="path3308-03-9"
             style="fill:#ffffff;fill-opacity:1;fill-rule:evenodd;stroke:none;stroke-width:0.11373495"
             cx="-537.89209"
             cy="-1140.3582"
             r="32.056507" />
          <g
             id="g16309-5-8"
             transform="translate(-0.25882101,-0.86816269)">
            <path
               id="path3083-0-0"
               d="m -537.63497,1115.0227 c -14.46501,0 -26.19742,11.7314 -26.19742,26.2028 0,14.4715 11.73241,26.2028 26.19742,26.2028 14.47356,0 26.20255,-11.7313 26.20255,-26.2028 0,-14.4714 -11.72899,-26.2028 -26.20255,-26.2028 m 0,55.4073 c -16.12544,0 -29.20192,-13.0706 -29.20192,-29.2045 0,-16.127 13.07648,-29.2028 29.20192,-29.2028 16.12886,0 29.20534,13.0775 29.20534,29.2028 0,16.1356 -13.07819,29.2045 -29.20534,29.2045"
               style="fill:#000000;fill-opacity:1;stroke-width:1.06666672"
               inkscape:connector-curvature="0" />
            <path
               id="path3085-7-1"
               d="m -541.81937,1137.8851 c -1.52876,-1.0723 -2.79759,-2.0712 -3.84582,-3.029 v 20.3089 c 2.12384,-0.4498 4.3725,-1.3683 5.92348,-3.1916 3.81334,-4.505 2.52057,-10.8625 -2.07766,-14.0883 m 16.66922,17.8751 c -6.31679,3.5439 -14.23245,3.5746 -20.51334,1.9652 v 2.7195 h -2.72576 v -3.5507 c -1.17136,-0.4242 -2.25209,-0.9013 -3.21654,-1.4231 0,0 1.35604,0.1676 3.21654,0.051 v -23.7689 c -1.35604,-2.0849 -1.68095,-4.1151 -1.35946,-6.4584 0.35739,-2.6185 2.33417,-4.3682 3.892,-5.6613 -0.91829,2.6426 -0.9884,5.044 -0.71821,6.4994 0.51642,2.7161 2.10845,4.6676 8.98099,6.1574 7.13247,1.5376 15.58336,2.2491 18.37582,9.1744 1.27224,3.1641 2.06056,9.8089 -5.93204,14.2952"
               style="fill:#000000;fill-opacity:1;stroke-width:1.06666672"
               inkscape:connector-curvature="0" />
          </g>
        </g>
      </g>
    </g>
    <g
       id="layer1-62"
       transform="translate(4.0901773,30.2445)">
      <g
         transform="matrix(0.81060602,0,0,0.81060602,-6.1088757,11.295995)"
         id="g858">
        <rect
           ry="0.80319357"
           y="130.0132"
           x="58.672989"
           height="7.417788"
           width="10.228977"
           id="rect857"
           style="opacity:1;vector-effect:none;fill:#d9d9d9;fill-opacity:1;stroke:#2cbfd4;stroke-width:1.06500006;stroke-linecap:round;stroke-linejoin:round;stroke-miterlimit:4;stroke-dasharray:none;stroke-dashoffset:0;stroke-opacity:1" />
        <path
           id="path861"
           d="m 59.135879,130.47955 4.200549,4.17693 c 0.226953,0.22695 0.698555,0.21968 0.917617,0 l 4.161315,-4.17313"
           style="fill:none;stroke:#2cbfd4;stroke-width:0.86500001;stroke-linecap:butt;stroke-linejoin:miter;stroke-miterlimit:4;stroke-dasharray:none;stroke-opacity:1"
           inkscape:connector-curvature="0" />
        <path
           id="path865"
           d="m 59.039155,137.01758 3.307292,-3.30729"
           style="fill:none;stroke:#2cbfd4;stroke-width:0.76499999;stroke-linecap:butt;stroke-linejoin:miter;stroke-miterlimit:4;stroke-dasharray:none;stroke-opacity:1"
           inkscape:connector-curvature="0" />
        <path
           id="path865-3"
           d="m 68.559431,137.05302 -3.307292,-3.30729"
           style="fill:none;stroke:#2cbfd4;stroke-width:0.76499999;stroke-linecap:butt;stroke-linejoin:miter;stroke-miterlimit:4;stroke-dasharray:none;stroke-opacity:1"
           inkscape:connector-curvature="0" />
      </g>
      <text
         id="text862"
         y="123.23162"
         x="60.078068"
         style="font-style:normal;font-variant:normal;font-weight:normal;font-stretch:normal;font-size:20.54105186px;line-height:1.25;font-family:Ubuntu;-inkscape-font-specification:Ubuntu;text-align:center;letter-spacing:0px;word-spacing:0px;text-anchor:middle;fill:#808080;fill-opacity:1;stroke:none;stroke-width:1.28381574"
         xml:space="preserve"><tspan
           style="fill:#808080;fill-opacity:1;stroke-width:1.28381574"
           y="123.23162"
           x="60.078068"
           id="tspan860">Pi</tspan></text>
      <text
         id="text866"
         y="122.92055"
         x="89.524872"
         style="font-style:normal;font-variant:normal;font-weight:normal;font-stretch:normal;font-size:20.73812294px;line-height:1.25;font-family:Ubuntu;-inkscape-font-specification:Ubuntu;text-align:center;letter-spacing:0px;word-spacing:0px;text-anchor:middle;fill:#2cbfd4;fill-opacity:1;stroke:none;stroke-width:1.29613268"
         xml:space="preserve"><tspan
           style="fill:#2cbfd4;fill-opacity:1;stroke-width:1.29613268"
           y="122.92055"
           x="89.524872"
           id="tspan864">SMS</tspan></text>
    </g>
  </g>
</svg>
